<svg width="25" height="25" viewBox="0 0 25 25" fill="none" xmlns="http://www.w3.org/2000/svg">
<g clip-path="url(#clip0)">
<path d="M21.5315 3.84829C19.172 1.3854 15.9072 -0.00454569 12.4964 0.00173014C5.60355 -0.00695143 0.00869147 5.57378 9.89546e-06 12.4667C-0.00427859 15.875 1.38551 19.1368 3.84657 21.4946C3.85374 21.5018 3.85641 21.5125 3.86352 21.5188C3.9358 21.5884 4.01435 21.6473 4.08757 21.7142C4.28839 21.8927 4.48922 22.0775 4.70077 22.2498C4.8141 22.3391 4.93193 22.4283 5.04798 22.5104C5.24792 22.6594 5.44785 22.8085 5.65668 22.946C5.79862 23.0353 5.945 23.1245 6.09045 23.2137C6.28322 23.3298 6.47516 23.4467 6.6742 23.5529C6.84292 23.6422 7.01514 23.7189 7.18652 23.8001C7.37396 23.8894 7.55873 23.9786 7.75061 24.0589C7.9425 24.1393 8.13532 24.2018 8.32987 24.2714C8.52442 24.341 8.69225 24.4053 8.8788 24.4624C9.08946 24.5258 9.30545 24.5748 9.51967 24.6275C9.69816 24.6712 9.87132 24.7212 10.0552 24.7569C10.3015 24.806 10.5515 24.8373 10.8014 24.8712C10.9558 24.8926 11.1067 24.923 11.2628 24.9381C11.6717 24.9783 12.084 25.0006 12.4999 25.0006C12.9158 25.0006 13.3282 24.9783 13.737 24.9381C13.8932 24.923 14.044 24.8926 14.1984 24.8712C14.4483 24.8373 14.6982 24.806 14.9446 24.7569C15.1231 24.7212 15.3016 24.6677 15.4801 24.6275C15.6944 24.5748 15.9103 24.5257 16.121 24.4624C16.3076 24.4053 16.4878 24.3357 16.6699 24.2714C16.852 24.2071 17.0591 24.1375 17.2492 24.0589C17.4393 23.9804 17.6259 23.8885 17.8133 23.8001C17.9847 23.7189 18.1569 23.6421 18.3256 23.5529C18.5247 23.4467 18.7165 23.3297 18.9094 23.2137C19.0549 23.1245 19.2012 23.0433 19.3431 22.946C19.552 22.8085 19.7519 22.6595 19.9518 22.5104C20.0679 22.4211 20.1857 22.3408 20.299 22.2498C20.5106 22.0802 20.7114 21.8999 20.9122 21.7142C20.9854 21.6473 21.064 21.5884 21.1363 21.5188C21.1434 21.5125 21.1461 21.5018 21.1532 21.4946C26.1307 16.7262 26.3 8.82561 21.5315 3.84829ZM19.5254 20.5601C19.3629 20.7029 19.1951 20.8386 19.0256 20.9698C18.9256 21.0466 18.8256 21.1224 18.723 21.1957C18.5614 21.3126 18.3972 21.4233 18.2303 21.5295C18.1089 21.6071 17.9848 21.6821 17.8598 21.7553C17.7027 21.8446 17.543 21.9338 17.3814 22.0231C17.2386 22.0962 17.0931 22.165 16.9468 22.2328C16.8004 22.3007 16.6388 22.3729 16.4808 22.4363C16.3228 22.4997 16.1551 22.5595 15.9899 22.6148C15.8391 22.6666 15.6882 22.7202 15.5356 22.7657C15.3571 22.8192 15.1705 22.8629 14.9858 22.9076C14.8412 22.9415 14.6984 22.9799 14.552 23.0085C14.3404 23.0495 14.1245 23.0781 13.9076 23.1075C13.7844 23.1236 13.6621 23.1459 13.538 23.1584C13.1953 23.1914 12.8481 23.2111 12.4973 23.2111C12.1465 23.2111 11.7993 23.1915 11.4565 23.1584C11.3325 23.1459 11.2102 23.1236 11.087 23.1075C10.8701 23.0781 10.6541 23.0495 10.4426 23.0085C10.2962 22.9799 10.1534 22.9415 10.0088 22.9076C9.82405 22.863 9.64016 22.8183 9.459 22.7657C9.30639 22.7202 9.15551 22.6666 9.00468 22.6148C8.83958 22.5577 8.67442 22.4997 8.51376 22.4363C8.35309 22.3729 8.20138 22.3033 8.04783 22.2328C7.89428 22.1623 7.75595 22.0963 7.61317 22.0231C7.45162 21.9392 7.29185 21.8508 7.13475 21.7553C7.0098 21.6821 6.8857 21.6071 6.76431 21.5295C6.59743 21.4233 6.43316 21.3126 6.27161 21.1957C6.16895 21.1225 6.069 21.0466 5.96901 20.9698C5.79941 20.8386 5.63163 20.7021 5.46919 20.5601C5.42991 20.5307 5.3942 20.4932 5.35586 20.4592C5.39576 17.4229 7.34635 14.7419 10.223 13.7695C11.6614 14.4537 13.3314 14.4537 14.7698 13.7695C17.6464 14.7419 19.597 17.4229 19.6369 20.4592C19.5994 20.4932 19.5637 20.5271 19.5254 20.5601ZM9.38395 7.15817C10.3504 5.43943 12.5271 4.82957 14.2458 5.796C15.9646 6.76243 16.5744 8.93915 15.608 10.6579C15.2874 11.2282 14.8162 11.6994 14.2458 12.0201C14.2414 12.0201 14.236 12.0201 14.2307 12.0254C13.994 12.1571 13.7438 12.2631 13.4845 12.3414C13.4381 12.3548 13.3952 12.3726 13.3461 12.3842C13.2569 12.4074 13.1632 12.4235 13.0712 12.4395C12.8981 12.4698 12.723 12.4874 12.5473 12.4922H12.4455C12.2698 12.4874 12.0947 12.4698 11.9216 12.4395C11.8323 12.4235 11.7377 12.4074 11.6467 12.3842C11.5994 12.3726 11.5574 12.3548 11.5084 12.3414C11.249 12.2631 10.9989 12.1572 10.7622 12.0254L10.7461 12.0201C9.02738 11.0536 8.41753 8.87691 9.38395 7.15817ZM21.2203 18.6893C20.6476 16.0178 18.8883 13.7529 16.4415 12.5369C18.4417 10.3581 18.2968 6.97037 16.118 4.97021C13.9392 2.97004 10.5515 3.11491 8.55131 5.29372C6.67096 7.34205 6.67096 10.4887 8.55131 12.5369C6.10451 13.7529 4.34529 16.0178 3.77252 18.6893C0.349888 13.8683 1.48351 7.18547 6.30456 3.76284C11.1256 0.340207 17.8084 1.47383 21.2311 6.29488C22.5177 8.10718 23.2083 10.275 23.2072 12.4976C23.2072 14.7183 22.5125 16.8833 21.2203 18.6893Z" fill="black"/>
</g>
<defs>
<clipPath id="clip0">
<rect width="25" height="25" fill="white"/>
</clipPath>
</defs>
</svg>
